# xmcd
# 
# Track frame offsets:
#     150
#     19995
#     32874
#     52584
#     69351
#     101184
#     117600
#     135096
#     157776
#     171411
#     194064
#     216420
#     238641
#     259701
#     283866
# 
# Disc length: 4056
# 
# Revision: 0
# Processed by: cddbd v1.5.2PL0 Copyright (c) Steve Scherf et al.
# Submitted via: BonkEnc v1.0.8
# 
DISCID=db0fd60f
DTITLE=Eric Clapton - The Best Of Eric Clapton Cd1
DYEAR=2004
DGENRE=Country
TTITLE0=Shot The Sheriff
TTITLE1=After Midnight
TTITLE2=Wonderful Tonight
TTITLE3=Layla
TTITLE4=Layla
TTITLE5=Cocaine
TTITLE6=Lay Down Sally
TTITLE7=Bell Buttom Blues
TTITLE8=Promises
TTITLE9=Let It Rain
TTITLE10=Let It Grow
TTITLE11=She's Waiting
TTITLE12=Blueeyes Blue
TTITLE13=My Father's Blue
TTITLE14=Tears In Heaven
EXTD=
EXTT0=
EXTT1=
EXTT2=
EXTT3=
EXTT4=
EXTT5=
EXTT6=
EXTT7=
EXTT8=
EXTT9=
EXTT10=
EXTT11=
EXTT12=
EXTT13=
EXTT14=
PLAYORDER=
